# xmcd
#
# Track frame offsets:
#	150
#	15377
#	31435
#	49425
#	65044
#	78635
#	99039
#	121772
#	143663
#	168173
#	187722
#	205902
#	221948
#	237109
#	252901
#
# Disc length: 3572 seconds
#
# Revision: 1
# Processed by: cddbd v1.5.2PL0 Copyright (c) Steve Scherf et al.
# Submitted via: audiograbber 1.83.01
#
DISCID=c70df20f
DTITLE=Kenny Chesney - Greatest Hits II
DYEAR=2009
DGENRE=Country
TTITLE0=Out Last Night (previuosly unreleased)
TTITLE1=Living In Fast Forward
TTITLE2=Young
TTITLE3=Summertime
TTITLE4=Down the road (w. Mac McAnally)
TTITLE5=Beer in Mexico
TTITLE6=There goes my life
TTITLE7=When The Sun Goes Down (Duet With Uncle Kracker)
TTITLE8=Anything but mine
TTITLE9=Be as you are
TTITLE10=I go back
TTITLE11=No Shoes, No Shirt, No Problems
TTITLE12=The good stuff
TTITLE13=Never wanted nothing more
TTITLE14=I'm Alive (With Dave Matthews)
EXTD=
EXTT0=
EXTT1=
EXTT2=
EXTT3=
EXTT4=
EXTT5=
EXTT6=
EXTT7=
EXTT8=
EXTT9=
EXTT10=
EXTT11=
EXTT12=
EXTT13=
EXTT14=
PLAYORDER=
